<mxfile host="www.draw.io" modified="2023-09-15T16:01:51.441Z" agent="Mozilla/5.0 (Windows NT 10.0; Win64; x64) AppleWebKit/537.36 (KHTML, like Gecko) Chrome/116.0.0.0 Safari/537.36 Edg/116.0.1938.81" etag="dOG_umIxKZJbIB5-s8f7" version="21.7.5" type="device">
  <diagram name="第 1 页" id="-1c_ftX4FIR6rUO1E57i">
    <mxGraphModel dx="1290" dy="658" grid="1" gridSize="10" guides="1" tooltips="1" connect="1" arrows="1" fold="1" page="1" pageScale="1" pageWidth="827" pageHeight="1169" math="0" shadow="0">
      <root>
        <mxCell id="0" />
        <mxCell id="1" parent="0" />
        <mxCell id="A_y05WwRzUiTaDKgF2tJ-1" value="grippledb cluster模式" style="rounded=1;whiteSpace=wrap;html=1;" parent="1" vertex="1">
          <mxGeometry x="110" y="840" width="310" height="90" as="geometry" />
        </mxCell>
        <mxCell id="A_y05WwRzUiTaDKgF2tJ-2" value="grippledb cluster模式" style="rounded=1;whiteSpace=wrap;html=1;" parent="1" vertex="1">
          <mxGeometry x="870" y="800" width="360" height="90" as="geometry" />
        </mxCell>
        <mxCell id="A_y05WwRzUiTaDKgF2tJ-3" value="grippledb cluster模式" style="rounded=1;whiteSpace=wrap;html=1;" parent="1" vertex="1">
          <mxGeometry x="500" y="970" width="310" height="90" as="geometry" />
        </mxCell>
        <mxCell id="A_y05WwRzUiTaDKgF2tJ-4" value="grippledb cluster模式" style="rounded=1;whiteSpace=wrap;html=1;" parent="1" vertex="1">
          <mxGeometry x="870" y="470" width="310" height="90" as="geometry" />
        </mxCell>
        <mxCell id="A_y05WwRzUiTaDKgF2tJ-5" value="grippledb cluster模式" style="rounded=1;whiteSpace=wrap;html=1;" parent="1" vertex="1">
          <mxGeometry x="470" y="450" width="310" height="90" as="geometry" />
        </mxCell>
        <mxCell id="A_y05WwRzUiTaDKgF2tJ-6" value="" style="endArrow=classic;html=1;rounded=0;exitX=0.539;exitY=-0.011;exitDx=0;exitDy=0;exitPerimeter=0;entryX=0.413;entryY=1.016;entryDx=0;entryDy=0;entryPerimeter=0;" parent="1" source="A_y05WwRzUiTaDKgF2tJ-1" target="A_y05WwRzUiTaDKgF2tJ-5" edge="1">
          <mxGeometry width="50" height="50" relative="1" as="geometry">
            <mxPoint x="560" y="780" as="sourcePoint" />
            <mxPoint x="610" y="730" as="targetPoint" />
          </mxGeometry>
        </mxCell>
        <mxCell id="A_y05WwRzUiTaDKgF2tJ-7" value="" style="endArrow=classic;html=1;rounded=0;exitX=1;exitY=0.5;exitDx=0;exitDy=0;entryX=0.5;entryY=1;entryDx=0;entryDy=0;" parent="1" source="A_y05WwRzUiTaDKgF2tJ-1" target="A_y05WwRzUiTaDKgF2tJ-4" edge="1">
          <mxGeometry width="50" height="50" relative="1" as="geometry">
            <mxPoint x="560" y="780" as="sourcePoint" />
            <mxPoint x="610" y="730" as="targetPoint" />
          </mxGeometry>
        </mxCell>
        <mxCell id="A_y05WwRzUiTaDKgF2tJ-8" value="" style="endArrow=classic;html=1;rounded=0;exitX=0.405;exitY=1.024;exitDx=0;exitDy=0;exitPerimeter=0;entryX=0.5;entryY=0;entryDx=0;entryDy=0;" parent="1" source="A_y05WwRzUiTaDKgF2tJ-5" target="A_y05WwRzUiTaDKgF2tJ-3" edge="1">
          <mxGeometry width="50" height="50" relative="1" as="geometry">
            <mxPoint x="560" y="780" as="sourcePoint" />
            <mxPoint x="610" y="730" as="targetPoint" />
          </mxGeometry>
        </mxCell>
        <mxCell id="A_y05WwRzUiTaDKgF2tJ-9" value="" style="endArrow=classic;html=1;rounded=0;exitX=0.5;exitY=1;exitDx=0;exitDy=0;entryX=0.5;entryY=0;entryDx=0;entryDy=0;" parent="1" source="A_y05WwRzUiTaDKgF2tJ-4" target="A_y05WwRzUiTaDKgF2tJ-3" edge="1">
          <mxGeometry width="50" height="50" relative="1" as="geometry">
            <mxPoint x="560" y="780" as="sourcePoint" />
            <mxPoint x="610" y="730" as="targetPoint" />
          </mxGeometry>
        </mxCell>
        <mxCell id="vMkuwZSa04H596lVpS49-1" value="" style="endArrow=classic;html=1;rounded=0;entryX=0.5;entryY=0;entryDx=0;entryDy=0;" edge="1" parent="1" target="A_y05WwRzUiTaDKgF2tJ-2">
          <mxGeometry width="50" height="50" relative="1" as="geometry">
            <mxPoint x="590" y="540" as="sourcePoint" />
            <mxPoint x="680" y="730" as="targetPoint" />
          </mxGeometry>
        </mxCell>
        <mxCell id="vMkuwZSa04H596lVpS49-2" value="" style="endArrow=classic;html=1;rounded=0;" edge="1" parent="1">
          <mxGeometry width="50" height="50" relative="1" as="geometry">
            <mxPoint x="1020" y="560" as="sourcePoint" />
            <mxPoint x="1050" y="800" as="targetPoint" />
          </mxGeometry>
        </mxCell>
      </root>
    </mxGraphModel>
  </diagram>
</mxfile>
